# xmcd
#
# Track frame offsets:
#	183
#	13488
#	28080
#	40735
#	53018
#	65485
#	80888
#	92905
#	107490
#	121808
#	136033
#	147350
#	158063
#	171325
#	184900
#	198175
#	212375
#	223775
#	236683
#	251380
#	271635
#
# Disc length: 3805 seconds
#
# Revision: 1
# Processed by: cddbd v1.5.2PL0 Copyright (c) Steve Scherf et al.
# Submitted via: audiograbber 1.83.01
#
DISCID=270edb15
DTITLE=Frank Sinatra - The Kid From Hoboken CD3
DYEAR=1994
DGENRE=Jazz
TTITLE0=All Or Nothing At All
TTITLE1=Daybreak
TTITLE2=On A Little Street In Singapore
TTITLE3=Ther Are Such Things
TTITLE4=Poor You
TTITLE5=Say It
TTITLE6=Who Told You I Cared
TTITLE7=Just As Though You Were Here
TTITLE8=Do You Know Why
TTITLE9=You're Lonely And I'm Lonely
TTITLE10=It's A Lovely Day Tomorrow
TTITLE11=Ciribiribin
TTITLE12=Two In Love
TTITLE13=A Sinner Kissed An Angel
TTITLE14=It's Funny To Everyone But Me
TTITLE15=The Call Of The Canyon
TTITLE16=The Last Call For Love
TTITLE17=Here Comes The Night
TTITLE18=Oh!look At Me Now
TTITLE19=Without A Song
TTITLE20=Night And Day
EXTD=
EXTT0=
EXTT1=
EXTT2=
EXTT3=
EXTT4=
EXTT5=
EXTT6=
EXTT7=
EXTT8=
EXTT9=
EXTT10=
EXTT11=
EXTT12=
EXTT13=
EXTT14=
EXTT15=
EXTT16=
EXTT17=
EXTT18=
EXTT19=
EXTT20=
PLAYORDER=
